<?xml version="1.0" encoding="UTF-8" standalone="no"?>
<svg
   xmlns:dc="http://purl.org/dc/elements/1.1/"
   xmlns:cc="http://creativecommons.org/ns#"
   xmlns:rdf="http://www.w3.org/1999/02/22-rdf-syntax-ns#"
   xmlns:svg="http://www.w3.org/2000/svg"
   xmlns="http://www.w3.org/2000/svg"
   xmlns:xlink="http://www.w3.org/1999/xlink"
   xmlns:sodipodi="http://sodipodi.sourceforge.net/DTD/sodipodi-0.dtd"
   xmlns:inkscape="http://www.inkscape.org/namespaces/inkscape"
   width="1024px"
   height="512px"
   viewBox="0 0 1024 512"
   version="1.1"
   id="svg37"
   sodipodi:docname="config.svg"
   inkscape:version="0.92.2 5c3e80d, 2017-08-06">
  <metadata
     id="metadata43">
    <rdf:RDF>
      <cc:Work
         rdf:about="">
        <dc:format>image/svg+xml</dc:format>
        <dc:type
           rdf:resource="http://purl.org/dc/dcmitype/StillImage" />
      </cc:Work>
    </rdf:RDF>
  </metadata>
  <defs
     id="defs41" />
  <sodipodi:namedview
     pagecolor="#ffffff"
     bordercolor="#666666"
     borderopacity="1"
     objecttolerance="10"
     gridtolerance="10"
     guidetolerance="10"
     inkscape:pageopacity="0"
     inkscape:pageshadow="2"
     inkscape:window-width="727"
     inkscape:window-height="480"
     id="namedview39"
     showgrid="false"
     inkscape:zoom="0.28125"
     inkscape:cx="632.88889"
     inkscape:cy="256"
     inkscape:window-x="0"
     inkscape:window-y="0"
     inkscape:window-maximized="0"
     inkscape:current-layer="svg37" />
  <!-- Generated by Pixelmator Pro 1.5.4 -->
  <g
     id="layer1">
    <defs
       id="defs3">
      <text
         id="string"
         transform="matrix(1.0 0.0 0.0 1.0 75.67420941235 90.00653480468998)"
         font-size="53.575"
         x="1.3599705036621117"
         font-family="Helvetica-Bold, Helvetica"
         text-decoration="none"
         y="41.0">Follow Me EV</text>
    </defs>
    <use
       id="Follow-Me-EV"
       xlink:href="#string"
       fill="#000000"
       fill-opacity="1"
       stroke="none" />
    <defs
       id="defs7">
      <text
         id="string-1"
         transform="matrix(1.0 0.0 0.0 1.0 103.45890963036999 160.40655480469002)"
         font-size="27.86"
         x="1.6362930854492106"
         font-family="Helvetica, Helvetica"
         text-decoration="none"
         y="21.0">Batteries and Systems</text>
    </defs>
    <use
       id="Batteries-and-Systems"
       xlink:href="#string-1"
       fill="#000000"
       fill-opacity="1"
       stroke="none" />
    <g
       id="New-Group">
      <path
         style="fill:#ffffff;fill-opacity:1;stroke:#161616;stroke-width:5.46799994;stroke-linejoin:round;stroke-opacity:1"
         d="m 581.37,355.87 c -0.397,15.06928 0.78621,30.29651 -0.57397,45.26952 -8.60971,8.74911 -23.5375,2.63515 -34.94458,4.46048 -21.62796,-0.39033 -43.4115,0.77619 -64.94354,-0.57395 -8.75004,-8.60864 -2.63535,-23.53692 -4.46091,-34.9436 0.39335,-19.80732 -0.78046,-39.77126 0.57397,-59.48254 8.6092,-8.74987 23.53752,-2.63546 34.94458,-4.46091 21.62796,0.39034 43.4115,-0.77621 64.94354,0.57397 8.74987,8.6092 2.63546,23.53752 4.46091,34.94458 0,4.73748 0,9.47497 0,14.21245 z"
         id="rect2264"
         inkscape:connector-curvature="0" />
      <path
         style="fill:#00ff00;fill-opacity:1;stroke:none"
         d="m 484.483,340.39 c 29.71567,0 59.43133,0 89.147,0 -0.0131,10.90747 3.66621,25.50745 -12.34386,20.418 -25.60105,0 -51.20209,0 -76.80314,0 0,-6.806 0,-13.612 0,-20.418 z"
         id="Front_Charge_Level"
         inkscape:connector-curvature="0" />
      <path
         style="fill:none;stroke:#f00000;stroke-width:1.02499998;stroke-linejoin:round;stroke-opacity:1"
         d="m 485.27,340.482 c 29.45333,0 58.90667,0 88.36,0 0.007,10.89807 3.63999,25.4219 -12.34386,20.329 -25.33872,0 -50.67743,0 -76.01614,0 0,-6.77633 0,-13.55267 0,-20.329 z"
         id="Front_Frame"
         inkscape:connector-curvature="0" />
      <path
         style="fill:none;stroke:#000000;stroke-width:3;stroke-linejoin:round;stroke-opacity:1"
         d="m 573.63,350.645 c 4.10306,15.39762 -14.61214,8.86089 -23.56091,10.163 -21.58086,-0.47031 -43.53576,0.93957 -64.88346,-0.70275 -3.33225,-11.6412 -0.86697,-24.38799 14.04023,-19.62325 24.52025,0.47002 49.41408,-0.93908 73.70139,0.70263 1.47645,2.84264 0.35375,6.37258 0.70275,9.46037 z"
         id="Front_Frame_Vis"
         inkscape:connector-curvature="0" />
      <path
         style="fill:#d3251f;fill-opacity:1;stroke:none"
         d="m 720,278 c -16.802,11.286 -33.604,22.572 -50.406,33.858 6.41767,18.26133 12.83533,36.52267 19.253,54.784 20.76833,0 41.53667,0 62.305,0 6.418,-18.26133 12.836,-36.52267 19.254,-54.784 C 753.604,300.572 736.802,289.286 720,278 Z"
         id="多边形"
         inkscape:connector-curvature="0" />
      <defs
         id="defs16">
        <text
           id="string-2"
           transform="matrix(1.0 0.0 0.0 1.0 634.0 284.0)"
           font-size="64"
           fill="#ffd039"
           x="1.0"
           font-family="PingFangSC-Semibold, PingFang SC"
           text-decoration="none"
           y="68.0">TEST</text>
      </defs>
      <use
         id="TEST"
         xlink:href="#string-2" />
    </g>
    <g
       id="g888">
      <g
         id="g871">
        <path
           style="fill:#000000;fill-opacity:1;stroke:#00ff00;stroke-width:1;stroke-linejoin:round;stroke-opacity:1"
           d="m 590.283,199.538 c -10.46483,-11.02711 -46.06763,-4.76113 -46.78829,-0.32004 12.8543,-6.80495 -25.49369,17.99452 -26.56035,29.52556 -11.67361,22.47809 -22.10832,45.90047 -27.14536,70.82848 -26.83486,19.21592 -1.74458,-25.72485 1.18958,-38.00711 10.01284,-26.59023 26.45817,-51.03279 52.09267,-64.6705 12.33688,-14.11992 57.62224,-16.89768 55.27392,-2.45628 -2.68739,1.69996 -5.37478,3.39993 -8.06217,5.09989 z"
           id="path4690"
           inkscape:connector-curvature="0" />
        <g
           id="g4720">
          <path
             style="fill:#000000;fill-opacity:1;stroke:#00ff00;stroke-width:1;stroke-linejoin:round;stroke-opacity:1"
             d="m 290.532,311.449 c -26.78465,26.9937 -31.15387,74.53946 -20.02008,106.82901 -28.53283,17.87845 -16.74296,-40.76831 -15.28642,-57.50116 4.06571,-19.8192 13.16984,-44.22269 35.3065,-49.32785 z"
             id="path4642"
             inkscape:connector-curvature="0" />
          <path
             style="fill:#000000;fill-opacity:1;stroke:#00ff00;stroke-width:1;stroke-linejoin:round;stroke-opacity:1"
             d="m 271.625,413.574 c 9.68965,13.56492 69.00649,-1.65523 36.383,15.733 -8.76161,1.00617 -62.7738,0.75016 -36.383,-15.733 z"
             id="path4644"
             inkscape:connector-curvature="0" />
          <path
             style="fill:#000000;fill-opacity:1;stroke:#00ff00;stroke-width:1;stroke-linejoin:round;stroke-opacity:1"
             d="m 324.806,421.996 c 9.35895,30.91352 52.26309,33.10532 74.26547,21.16769 -24.87938,13.99669 43.7588,-38.34939 18.77947,-12.63546 -21.82555,23.13796 -58.5856,37.25817 -88.43394,21.24377 -8.21713,-8.04106 -26.7442,-25.15181 -4.611,-29.776 z"
             id="path4646"
             inkscape:connector-curvature="0" />
          <path
             style="fill:#000000;fill-opacity:1;stroke:#00ff00;stroke-width:1;stroke-linejoin:round;stroke-opacity:1"
             d="m 432.84,416.271 c 51.82524,38.12134 125.47494,30.86753 176.47294,-5.00547 32.35304,-17.73023 74.2464,-32.80134 109.62148,-15.51308 19.82315,18.22767 -21.71901,12.98494 -27.91295,1.13305 -41.83516,-4.50512 -81.37647,15.2881 -116.53234,36.27594 -47.96928,24.20059 -108.78281,21.56524 -153.43941,-8.39725 1.67495,-4.77444 8.83863,-4.60713 11.79028,-8.49319 z"
             id="path4652"
             inkscape:connector-curvature="0" />
          <path
             style="fill:#000000;fill-opacity:1;stroke:#00ff00;stroke-width:1;stroke-linejoin:round;stroke-opacity:1"
             d="m 734.851,406.739 c 10.59575,25.8505 39.05701,45.57482 67.01881,32.94558 14.48815,1.31085 28.0346,-38.42556 46.98754,-45.04615 -7.31657,29.36832 -39.95543,48.10236 -67.84428,55.83837 -20.70139,9.80278 -74.54079,-26.09017 -46.16207,-43.7378 z"
             id="path4654"
             inkscape:connector-curvature="0" />
          <path
             style="fill:#000000;fill-opacity:1;stroke:#00ff00;stroke-width:1;stroke-linejoin:round;stroke-opacity:1"
             d="m 836.451,404.447 c -4.77417,-35.18008 34.35193,-56.82903 32.63087,-91.9328 -0.61978,-35.3532 6.16511,-72.16004 -4.13814,-106.51142 -2.20331,-17.13115 -46.72882,-37.78983 -9.86439,-34.84928 32.66849,20.34431 28.53647,63.28128 26.9321,96.48231 5.83481,37.80965 -6.68971,72.61392 -27.53603,102.56023 -3.74498,12.25952 -3.11609,29.83978 -18.02441,34.25096 z"
             id="path4656"
             inkscape:connector-curvature="0" />
          <path
             style="fill:#000000;fill-opacity:1;stroke:#00ff00;stroke-width:1;stroke-linejoin:round;stroke-opacity:1"
             d="m 560.625,167.574 c 48.33265,-16.60827 98.05806,-30.67758 148.58633,-38.19146 39.97033,0.1035 82.11036,3.41874 118.83917,20.12258 13.67003,27.54093 -32.8889,-5.1081 -46.92391,-4.38987 -45.07487,-8.99362 -92.54209,-12.89641 -136.65013,3.07302 -29.01405,5.11613 -75.72025,22.59258 -92.63133,25.61898 l 5.44654,-3.73359 z"
             id="path4674"
             inkscape:connector-curvature="0" />
          <path
             style="fill:#000000;fill-opacity:1;stroke:#00ff00;stroke-width:1;stroke-linejoin:round;stroke-opacity:1"
             d="m 529.431,172.291 c -19.47122,5.00754 12.84846,-9.71538 -6.501,3.038 -24.69224,29.62451 -40.66806,68.99726 -78.07003,85.65928 20.36623,-11.01211 -27.28223,14.86362 -1.25797,0.15372 -16.74283,8.63825 -8.70238,5.5728 -5.41467,3.56607 -10.46401,7.40409 -15.28067,3.88526 -1.35946,0.66803 -11.2445,8.08726 -12.66556,3.84034 -1.42132,-2.39646 -28.58942,15.99221 23.79948,-12.28927 -7.77455,4.70236 -0.1631,0.0426 31.52556,-17.70764 12.226,-6.37 30.96736,-17.15529 46.79633,-49.87958 66.84733,-77.32738 1.06625,-10.09264 56.33147,-33.87246 22.72567,-11.69362 z"
             id="path4678"
             inkscape:connector-curvature="0" />
          <path
             style="fill:#000000;fill-opacity:1;stroke:#00ff00;stroke-width:1;stroke-linejoin:round;stroke-opacity:1"
             d="m 415.219,282.271 c -33.15327,-3.35363 -59.9587,22.67228 -92.04205,26.81986 -13.20076,6.21923 -47.89689,0.0669 -16.49353,-6.93178 36.12351,3.35974 67.37709,-17.50189 100.43058,-28.14508 11.85595,-1.37709 27.97059,-1.20842 8.105,8.257 z"
             id="path4680"
             inkscape:connector-curvature="0" />
          <path
             style="fill:#000000;fill-opacity:1;stroke:#00ff00;stroke-width:1;stroke-linejoin:round;stroke-opacity:1"
             d="m 475.731,290.584 c 40.94931,2.38584 82.70107,-3.58192 120.544,-19.732 -21.04581,16.87425 16.27951,-33.09769 1.64086,-49.67173 -6.52607,-10.64781 -6.28418,-42.93254 10.36824,-26.45396 1.83212,26.95415 13.17929,66.57317 -17.80464,81.75203 -36.86739,19.35471 -79.5142,22.15573 -120.35466,23.01024 -9.28999,-1.58605 3.87473,-7.10424 5.6062,-8.90458 z"
             id="path4688"
             inkscape:connector-curvature="0" />
          <path
             style="fill:#000000;fill-opacity:1;stroke:#00ff00;stroke-width:1;stroke-linejoin:round;stroke-opacity:1"
             d="m 644.39,187.578 c -23.52834,22.36846 -20.27807,78.8508 20.77349,75.5812 38.31106,-1.30046 74.48257,-18.18787 113.22271,-16.87825 14.95038,-1.34016 40.56657,-5.0052 13.3618,5.78935 -31.6715,4.9139 -64.52567,2.10272 -95.41916,13.15797 -29.86659,11.22695 -81.8703,11.64327 -79.35835,-32.53432 0.78984,-17.89925 6.90827,-41.22156 27.41951,-45.11595 z"
             id="path4692"
             inkscape:connector-curvature="0" />
        </g>
      </g>
      <path
         style="fill:#000000;fill-opacity:1;stroke:#00ff00;stroke-width:1;stroke-linejoin:round;stroke-opacity:1"
         d="m 648.304,194.056 c 11.18292,-6.1287 -23.20478,13.29646 0.84428,-0.39606 37.15495,-20.15345 81.15236,-14.02928 120.63639,-26.37738 32.6212,-13.69654 64.314,11.44142 59.74055,46.57103 2.45508,19.43093 -1.83832,46.10148 -24.35422,50.33841 19.52485,-22.79064 15.87455,-61.68592 -1.59255,-84.4725 -26.23286,-17.06109 -58.87006,3.05992 -87.11795,4.50038 -20.76499,-0.97142 -61.96353,10.55712 -68.38522,12.63628 20.27215,-12.48406 -30.52868,19.83885 0.22872,-2.80016 z"
         id="path4696"
         inkscape:connector-curvature="0" />
    </g>
  </g>
</svg>
