<?xml version="1.0" encoding="utf-8"?>
<!-- Generator: Adobe Illustrator 24.0.0, SVG Export Plug-In . SVG Version: 6.00 Build 0)  -->
<svg version="1.0" id="图层_1" xmlns="http://www.w3.org/2000/svg" xmlns:xlink="http://www.w3.org/1999/xlink" x="0px" y="0px"
	 viewBox="0 0 1509 736" style="enable-background:new 0 0 1509 736;" xml:space="preserve">
<path style="fill:none;stroke:#00FF00;stroke-miterlimit:10;" d="M442.5,276.5"/>
<path style="fill:#00FF00;" d="M428,277"/>
<g>
	<path style="fill:#F77900;" d="M815.743,169.693c-1.434-3.943-2.868-7.887-4.303-11.83c-0.278-0.764-0.558-1.528-0.836-2.292
		c-0.018-0.049-0.031-0.1-0.045-0.144c0.918-0.26,1.731-0.703,2.481-1.277c0.048,0.021,0.049,0.072,0.064,0.114
		c1.856,5.098,3.713,10.195,5.568,15.293c0.016,0.044,0.024,0.091,0.035,0.136C817.72,169.693,816.731,169.693,815.743,169.693z"/>
	<path style="fill:#F77900;" d="M831,144.861c-0.236,0.087-0.423,0.255-0.629,0.39c-1.169,0.765-2.333,1.536-3.499,2.305
		c-0.019,0.013-0.041,0.022-0.063,0.033c-0.301-0.885-0.743-1.681-1.388-2.368c0.057-0.077,0.155-0.124,0.243-0.18
		c1.746-1.119,3.494-2.236,5.242-3.352c0.029-0.019,0.063-0.029,0.095-0.044C831,142.717,831,143.789,831,144.861z"/>
	<path style="fill:#F77900;" d="M814.951,143.066c-0.008,5.025-4.093,9.093-9.121,9.083c-5.02-0.009-9.097-4.1-9.076-9.106
		c0.021-5.035,4.098-9.092,9.125-9.079C810.879,133.976,814.959,138.069,814.951,143.066z"/>
	<path style="fill:#F77900;" d="M808.38,155.729c0.19-0.047,0.27,0.028,0.339,0.218c0.586,1.634,1.188,3.262,1.783,4.893
		c0.297,0.812,0.59,1.625,0.884,2.434c-0.059,0.056-0.098,0-0.132-0.017c-1.139-0.572-2.28-1.139-3.411-1.727
		c-0.747-0.388-1.497-0.768-2.286-1.066c-0.402-0.152-0.814-0.234-1.244-0.138c-0.168,0.037-0.286,0.131-0.393,0.272
		c-0.483,0.63-0.983,1.247-1.472,1.873c-0.629,0.805-1.251,1.615-1.878,2.421c-0.782,1.005-1.574,2.003-2.349,3.013
		c-0.427,0.556-0.969,0.925-1.663,0.998c-0.632,0.067-1.205-0.143-1.702-0.546c-0.587-0.475-1.018-1.045-1.134-1.815
		c-0.086-0.571,0.006-1.112,0.281-1.616c0.266-0.489,0.648-0.895,0.987-1.331c1.278-1.644,2.564-3.283,3.847-4.924
		c0.725-0.928,1.455-1.852,2.173-2.785c0.287-0.373,0.588-0.728,1.004-0.961c0.32-0.179,0.666-0.274,1.035-0.323
		c0.672-0.09,1.245,0.194,1.839,0.42c0.634,0.241,1.276,0.461,1.942,0.599c0.348,0.072,0.7,0.104,1.055,0.108
		C808.049,155.749,808.215,155.748,808.38,155.729z"/>
	<path style="fill:#F77900;" d="M818.235,163.003c-0.392-1.091-0.772-2.145-1.151-3.199c-0.817-2.273-1.633-4.546-2.453-6.818
		c-0.037-0.104-0.037-0.187,0.011-0.286c0.773-1.578,1.519-3.17,2.323-4.731c0.612-1.189,1.628-1.866,2.96-2.037
		c1.988-0.256,3.812,1.082,4.232,2.994c0.2,0.911,0.086,1.781-0.324,2.619c-1.452,2.971-2.901,5.943-4.351,8.915
		c-0.388,0.795-0.777,1.589-1.165,2.384C818.298,162.884,818.276,162.924,818.235,163.003z"/>
	<path style="fill:#F77900;" d="M822.087,144.103c-2.133-0.007-3.874-1.75-3.871-3.877c0.003-2.127,1.754-3.873,3.881-3.868
		c2.143,0.005,3.879,1.754,3.867,3.896C825.951,142.379,824.208,144.109,822.087,144.103z"/>
	<path style="fill:#F77900;" d="M808.38,155.729c-0.166,0.046-0.331,0.047-0.497,0C808.049,155.728,808.215,155.729,808.38,155.729z
		"/>
</g>
<g>
	<path style="fill:#00FE00;" d="M446.08,299.216c-0.699,0.073-1.307-0.086-1.389-0.881c-0.085-0.82,0.406-1.32,1.2-1.414
		c4.021-0.48,8.045-0.938,12.068-1.395c0.638-0.072,1.132,0.201,1.225,0.846c0.1,0.693-0.235,1.256-0.954,1.376
		c-1.326,0.222-2.665,0.377-4.001,0.534C451.514,298.603,448.796,298.906,446.08,299.216z"/>
	<path style="fill:#00FE00;" d="M446.123,318.028c-0.499,0.082-1.254,0.144-1.441-0.865c-0.137-0.734,0.511-1.351,1.603-1.483
		c2.509-0.304,5.023-0.568,7.535-0.848c1.307-0.146,2.616-0.278,3.922-0.438c0.751-0.092,1.406,0.078,1.462,0.907
		c0.058,0.851-0.521,1.308-1.358,1.405c-1.72,0.2-3.44,0.402-5.162,0.596C450.585,317.539,448.485,317.767,446.123,318.028z"/>
	<path style="fill:#00FE00;" d="M458.082,309.304c-0.07,0.909-0.69,1.225-1.472,1.318c-1.989,0.236-3.981,0.45-5.972,0.671
		c-1.51,0.167-3.023,0.316-4.531,0.501c-0.709,0.087-1.307-0.05-1.409-0.829c-0.096-0.731,0.271-1.203,1.063-1.371
		c1.927-0.409,3.894-0.474,5.836-0.75c1.709-0.243,3.431-0.399,5.148-0.581C457.582,308.173,458.093,308.584,458.082,309.304z"/>
	<path style="fill:#00FE00;" d="M445.977,305.469c-0.677,0.051-1.219-0.173-1.286-0.897c-0.076-0.819,0.402-1.308,1.205-1.407
		c2.372-0.291,4.746-0.558,7.12-0.832c1.239-0.143,2.478-0.289,3.718-0.417c0.642-0.066,1.219,0.056,1.319,0.827
		c0.1,0.773-0.28,1.338-1.034,1.432C453.342,304.635,449.658,305.043,445.977,305.469z"/>
	<path style="fill:#00FE00;stroke:#00FF00;stroke-width:0.5;stroke-miterlimit:10;" d="M459.223,306.028
		c0.028-3.138,0.292-6.028,1.267-8.814c0.275-0.787,0.615-1.542,1.046-2.256c1.532-2.54,3.546-3.425,6.346-2.441
		c5.317,1.868,8.876,5.565,10.065,11.087c1.204,5.595-1.374,9.891-5.532,13.385c-1.579,1.327-3.376,2.276-5.435,2.676
		c-2.201,0.428-3.867-0.365-5.108-2.164c-1.542-2.236-2.038-4.816-2.418-7.434C459.249,308.655,459.236,307.235,459.223,306.028z
		 M466.961,294.45c-1.623-0.446-2.723,0.058-3.552,1.579c-0.41,0.753-0.77,1.553-1.019,2.373c-1.192,3.919-1.258,7.922-0.728,11.946
		c0.263,1.997,0.721,3.958,1.808,5.697c0.904,1.446,1.908,1.833,3.536,1.442c4.701-1.13,9.087-6.672,9.092-11.488
		C476.139,300.679,471.427,295.678,466.961,294.45z"/>
</g>
<g>
	<path style="fill:#3FA8F4;" d="M465.397,341.922c2.045,0,4.091,0.037,6.135-0.017c0.9-0.024,1.027,0.408,1.014,1.145
		c-0.012,0.692-0.031,1.193-0.972,1.184c-4.194-0.038-8.389-0.042-12.582,0.003c-1.013,0.011-0.983-0.533-1.01-1.25
		c-0.031-0.81,0.242-1.101,1.073-1.082C461.167,341.954,463.282,341.922,465.397,341.922z"/>
	<path style="fill:#40A9F4;" d="M465.214,363.028c-2.043,0-4.088-0.037-6.129,0.018c-0.879,0.024-1.116-0.284-1.115-1.133
		c0.001-0.879,0.228-1.227,1.17-1.217c4.086,0.043,8.173,0.048,12.259-0.002c1.017-0.012,1.08,0.532,1.147,1.284
		c0.077,0.868-0.344,1.066-1.099,1.058C469.37,363.013,467.291,363.027,465.214,363.028z"/>
	<path style="fill:#41A9F4;" d="M464.676,354.472c1.872,0,3.745,0.042,5.615-0.018c0.913-0.029,1.091,0.349,1.102,1.166
		c0.012,0.853-0.165,1.263-1.127,1.253c-3.744-0.039-7.488-0.041-11.232,0c-1.051,0.012-1.038-0.564-1.059-1.33
		c-0.022-0.821,0.269-1.103,1.084-1.085C460.932,354.501,462.804,354.472,464.676,354.472z"/>
	<path style="fill:#3FA8F4;" d="M464.771,350.466c-1.908,0-3.818-0.035-5.725,0.016c-0.834,0.022-1.099-0.274-1.066-1.084
		c0.03-0.72,0.003-1.265,1.013-1.253c3.816,0.046,7.633,0.048,11.449-0.001c0.987-0.013,0.918,0.533,0.935,1.19
		c0.018,0.713-0.053,1.184-0.986,1.152C468.52,350.421,466.644,350.466,464.771,350.466z"/>
	<path style="fill:#3FA8F4;stroke:#3FA9F5;stroke-width:0.5;stroke-miterlimit:10;" d="M472.535,352.368
		c-0.013-3.175,0.296-6.297,1.498-9.274c0.168-0.417,0.352-0.831,0.566-1.225c1.613-2.973,3.829-3.828,7.027-2.724
		c5.281,1.822,9.683,7.505,9.902,12.782c0.261,6.275-5.142,13.089-11.326,14.282c-2.077,0.401-3.877-0.403-5.144-2.335
		c-1.383-2.108-1.906-4.502-2.269-6.949C472.566,355.412,472.562,353.889,472.535,352.368z M474.668,353.362
		c0.097,3.032,0.417,6.025,1.849,8.768c1.03,1.972,2.183,2.395,4.275,1.695c2.235-0.747,4.037-2.133,5.554-3.885
		c1.969-2.274,3.304-4.893,3.014-7.955c-0.482-5.096-3.458-8.508-7.959-10.612c-2.606-1.218-4.133-0.472-5.244,2.203
		c-1.165,2.803-1.469,5.749-1.49,8.745C474.667,352.669,474.657,353.016,474.668,353.362z"/>
</g>
<g>
	<path style="fill:#F6921E;" d="M486.444,394.642c-0.51-1.228-0.922-2.33-0.989-3.519c-0.018-0.328-0.219-0.394-0.489-0.395
		c-0.347,0-0.694-0.003-1.042-0.003c-1.44-0.002-1.438-0.023-1.394-1.452c0.018-0.604,0.219-0.879,0.852-0.896
		c0.714-0.019,1.613,0.327,2.094-0.179c0.415-0.438,0.367-1.298,0.574-1.955c0.128-0.406,0.051-1.006,0.561-1.135
		c0.45-0.114,1.042-0.156,1.415,0.052c0.354,0.197-0.076,0.669-0.162,1.01c-0.177,0.704-0.396,1.396-0.455,2.118
		c0.05,0.023,0.08,0.047,0.112,0.051c2.332,0.25,2.286,0.235,2.978-1.952c0.472-1.492-0.037-1.382,2.172-1.288
		c-0.233,0.862-0.459,1.713-0.692,2.562c-0.141,0.514-0.038,0.759,0.58,0.741c1.423-0.04,2.849,0.028,4.27-0.027
		c0.948-0.036,1.068,0.456,1.075,1.229c0.007,0.75-0.134,1.169-1.018,1.135c-1.456-0.056-2.917,0.013-4.374-0.027
		c-0.685-0.019-0.805,0.207-0.699,0.855c0.479,2.934,0.615,3.072,3.531,3.072c0.382,0,0.764,0,1.146,0
		c1.299,0.001,1.765,0.657,1.379,1.897c-0.125,0.402-0.415,0.419-0.728,0.422c-0.868,0.009-1.737,0.029-2.604-0.003
		c-0.507-0.019-0.693,0.09-0.515,0.63c0.282,0.86,0.452,1.75,0.415,2.66c-0.026,0.654,0.274,0.857,0.882,0.805
		c0.414-0.036,0.833-0.009,1.25-0.006c1.245,0.008,1.685,0.652,1.288,1.848c-0.142,0.426-0.457,0.451-0.82,0.471
		c-0.825,0.046-1.902-0.358-2.406,0.164c-0.474,0.492-0.359,1.551-0.505,2.36c-0.025,0.136-0.048,0.275-0.09,0.406
		c-0.234,0.718-0.113,1.1,0.776,1.002c0.686-0.076,1.389,0.012,2.081-0.021c0.762-0.036,1.081,0.272,1.001,1.043
		c-0.067,0.653,0.04,1.355-0.999,1.294c-1.004-0.058-2.014,0.011-3.02-0.022c-0.532-0.017-0.835,0.131-0.965,0.687
		c-0.102,0.437-0.334,0.833-0.494,1.252c-0.13,0.339-0.362,0.812-0.808,1.341c-0.506-0.02-1.011-0.039-1.517-0.059
		c0.393-1.012,0.795-2.047,1.247-3.211c-0.796,0-1.451,0.031-2.102-0.01c-0.204-0.013-0.355,0.021-0.473,0.095
		c-0.23,0.145-0.309,0.403-0.341,0.506c-0.138,0.445-0.429,1.161-0.843,2.123c-0.116,0.18-0.233,0.361-0.349,0.541
		c-0.489-0.02-0.977-0.039-1.466-0.059c0.078-0.347,0.157-0.693,0.235-1.04c0.155-0.628,0.311-1.256,0.466-1.885
		c-0.87-0.275-1.522-0.302-1.967-0.272c-0.152,0.01-0.344,0.001-0.625,0c-1.224-0.003-1.757-0.807-1.304-1.948
		c0.174-0.438,0.544-0.364,0.878-0.367c1.111-0.009,2.224-0.035,3.333,0.008c0.578,0.022,0.824-0.236,0.91-0.745
		c0.139-0.82,0.256-1.645,0.417-2.461c0.108-0.545-0.05-0.757-0.624-0.734c-0.867,0.035-1.741-0.048-2.603,0.024
		c-0.95,0.079-1.144-0.321-1.173-1.202c-0.032-0.976,0.358-1.189,1.209-1.14c0.865,0.05,1.736-0.01,2.603,0.019
		c0.502,0.017,0.708-0.167,0.644-0.664c-0.022-0.172-0.013-0.347-0.024-0.52c-0.186-2.827-0.258-2.895-3.06-2.902
		c-1.255-0.003-1.736-0.715-1.313-1.911c0.136-0.384,0.428-0.409,0.748-0.41C485.104,394.639,485.692,394.642,486.444,394.642z
		 M490.336,396.96c-0.846-0.132-0.984,0.171-0.734,0.961c0.227,0.717,0.332,1.496,0.348,2.251c0.016,0.759,0.336,0.898,1.014,0.889
		c1.754-0.024,1.759,0.006,1.58-1.786c-0.034-0.343-0.135-0.679-0.163-1.022c-0.082-1.024-0.548-1.539-1.464-1.29
		C490.613,396.963,490.472,396.981,490.336,396.96z M489.942,394.643c0.768,0.093,1.126-0.06,0.664-0.909
		c-0.383-0.703-0.518-1.495-0.599-2.292c-0.03-0.297,0.007-0.695-0.435-0.7c-0.719-0.007-1.603-0.305-2.112,0.132
		c-0.476,0.41-0.03,1.227,0.097,1.857c0.048,0.235,0.153,0.458,0.218,0.69c0.251,0.887,0.651,1.553,1.585,1.218
		C489.665,394.641,489.805,394.627,489.942,394.643z M489.806,404.727c-0.009,0.643-0.214,1.285-0.351,1.923
		c-0.094,0.437,0.032,0.598,0.505,0.642c2.034,0.189,2.094,0.157,2.407-1.871c0.037-0.238,0.106-0.471,0.141-0.709
		c0.198-1.352,0.196-1.353-1.346-1.353C490.134,403.054,489.822,403.657,489.806,404.727z"/>
	<path style="fill:#F6921E;stroke:#FF931E;stroke-width:0.5;stroke-miterlimit:10;" d="M482.545,399.49
		c-0.034,2.321-0.259,5.355-1.276,8.28c-1.755,5.043-5.084,6.37-9.713,3.724c-4.102-2.344-6.941-5.729-7.84-10.483
		c-0.587-3.105,0.117-6.004,1.761-8.668c1.836-2.977,4.32-5.239,7.595-6.546c3.499-1.396,6.075-0.331,7.651,3.107
		C481.905,391.483,482.532,394.873,482.545,399.49z M480.228,395.561c-0.306-2.409-0.682-4.819-2.122-6.875
		c-0.919-1.312-1.784-1.594-3.33-1.187c-2.478,0.652-4.418,2.149-6.049,4.041c-2.653,3.077-3.946,6.591-2.519,10.582
		c1.537,4.299,4.519,7.242,9.003,8.483c1.025,0.284,1.92-0.074,2.606-0.889c0.449-0.533,0.779-1.137,1.061-1.778
		c1.245-2.824,1.384-5.837,1.564-8.846C480.376,397.913,480.376,396.728,480.228,395.561z"/>
</g>
<g>
	<path style="fill:#01FE01;" d="M420.491,258.19c-0.06,1.209-0.475,1.516-1.603,1.203c-2.963-0.823-5.914-1.692-8.893-2.453
		c-0.872-0.223-0.663-0.664-0.534-1.207c0.141-0.593,0.292-0.963,1.097-0.726c3.081,0.91,6.189,1.729,9.283,2.595
		C420.145,257.689,420.587,257.698,420.491,258.19z"/>
	<path style="fill:#01FE01;" d="M457.593,256.228c0.103,0.542-0.243,0.596-0.539,0.678c-3.16,0.872-6.325,1.723-9.478,2.621
		c-0.619,0.176-0.831-0.016-0.888-0.586c-0.048-0.475-0.631-1.055,0.31-1.311c3.23-0.88,6.445-1.814,9.689-2.637
		C457.825,254.704,457.193,255.942,457.593,256.228z"/>
	<path style="fill:#01FE01;" d="M419.615,269.803c0.844-0.046,0.598,0.746,0.804,1.179c0.219,0.458-0.02,0.645-0.495,0.773
		c-3.167,0.858-6.328,1.739-9.482,2.645c-0.779,0.224-0.89-0.278-0.98-0.79c-0.075-0.427-0.507-0.907,0.417-1.142
		c3.145-0.802,6.258-1.725,9.384-2.601C419.363,269.839,419.468,269.829,419.615,269.803z"/>
	<path style="fill:#01FE01;" d="M447.364,269.801c0.53,0.149,1.062,0.301,1.596,0.447c2.632,0.724,5.259,1.471,7.902,2.155
		c0.742,0.192,0.826,0.536,0.635,1.189c-0.182,0.622-0.388,0.972-1.15,0.753c-3.054-0.88-6.119-1.723-9.187-2.553
		c-0.479-0.13-0.78-0.304-0.613-0.834C446.691,270.498,446.627,269.867,447.364,269.801z"/>
	<path style="fill:#00FE00;" d="M414.082,265.662c-1.629,0-3.258-0.038-4.885,0.016c-0.794,0.027-0.807-0.388-0.796-0.966
		c0.01-0.552-0.035-1.01,0.775-1.002c3.257,0.033,6.515,0.044,9.771-0.007c0.86-0.013,0.755,0.464,0.744,0.985
		c-0.01,0.495,0.173,1.035-0.724,0.994C417.341,265.609,415.711,265.662,414.082,265.662z"/>
	<path style="fill:#00FE00;" d="M452.788,265.662c-1.596,0-3.193-0.034-4.787,0.016c-0.7,0.022-0.809-0.287-0.785-0.868
		c0.023-0.561-0.101-1.106,0.789-1.098c3.261,0.031,6.522,0.036,9.783-0.002c0.906-0.011,0.659,0.572,0.683,1.042
		c0.024,0.485,0.109,0.953-0.688,0.927C456.12,265.623,454.453,265.662,452.788,265.662z"/>
	<path style="fill:#00FE00;" d="M445.488,264.57c-0.125,2.571-0.203,5.389-1.212,8.054c-1.139,3.007-3.365,3.63-5.838,1.552
		c-6.222-5.227-5.892-14.798,0.093-19.67c0.319-0.26,0.683-0.478,1.052-0.663c1.825-0.912,3.297-0.442,4.276,1.36
		c0.896,1.649,1.181,3.471,1.399,5.293C445.41,261.768,445.409,263.058,445.488,264.57z M442.67,258.278
		c-0.265-0.985-0.294-2.372-1.342-2.625c-1.123-0.272-1.962,0.851-2.676,1.687c-3.212,3.753-3.461,9.23-0.624,13.288
		c0.658,0.94,1.408,1.799,2.456,2.343c0.672,0.348,1.196,0.292,1.503-0.478c0.167-0.417,0.369-0.823,0.496-1.251
		c0.66-2.212,0.763-4.495,0.829-6.9C443.225,262.386,443.214,260.303,442.67,258.278z"/>
	<path style="fill:#00FE00;" d="M421.388,264.619c-0.147-2.609,0.073-5.19,0.78-7.71c1.094-3.903,3.718-4.628,6.677-1.864
		c5.208,4.865,5.272,13.628,0.121,18.545c-0.472,0.45-1.003,0.865-1.569,1.186c-2.033,1.153-3.68,0.606-4.685-1.51
		c-0.877-1.848-1.156-3.837-1.311-5.843C421.328,266.494,421.388,265.554,421.388,264.619z M424.495,271.999
		c0.503,1.389,0.999,1.505,2.227,0.682c0.115-0.077,0.223-0.164,0.331-0.251c4.726-3.803,4.776-12.115,0.098-16.009
		c-1.563-1.301-2.218-1.133-2.833,0.823c-0.722,2.301-0.901,4.683-0.913,7.082C423.424,266.933,423.599,269.524,424.495,271.999z"/>
</g>
<g>
	<path style="fill:#00FE00;" d="M652.974,138.297c-1.979,2.529-3.321,5.061-4.019,7.882c-1.564,6.321-0.511,12.18,3.233,17.537
		c0.193,0.276,0.654,0.527,0.448,0.895c-0.161,0.288-0.612,0.124-0.931,0.127c-2.654,0.02-2.729,0.052-3.873-2.351
		c-3.784-7.952-3.49-15.766,0.937-23.406c0.275-0.474,0.604-0.723,1.185-0.696C650.867,138.328,651.784,138.297,652.974,138.297z"/>
	<path style="fill:#00FE00;" d="M685.328,164.74c3.067-4.047,4.676-8.357,4.668-13.221c-0.008-4.866-1.594-9.184-4.68-13.206
		c1.284,0,2.361,0,3.439,0c0.371,0,0.479,0.311,0.64,0.55c4.797,7.079,4.804,18.086,0.036,25.301
		c-0.267,0.403-0.547,0.601-1.037,0.586C687.451,164.72,686.507,164.74,685.328,164.74z"/>
	<path style="fill:#00FD00;" d="M669.168,168.531c-9.398,0-16.976-7.578-16.972-16.972c0.004-9.529,7.547-17.04,17.107-17.035
		c9.29,0.006,16.888,7.634,16.9,16.968C686.215,160.924,678.609,168.531,669.168,168.531z M669.197,166.556
		c8.182,0.006,15.002-6.792,15.008-14.96c0.006-8.254-6.709-15.051-14.877-15.059c-8.428-0.008-15.122,6.619-15.123,14.972
		C654.204,159.798,660.931,166.55,669.197,166.556z"/>
	<path style="fill:#00FE00;" d="M675.964,159.85c-0.995,0.318-1.435-0.305-1.701-1.316c-0.234-0.89-0.655-1.729-0.911-2.615
		c-0.162-0.561-0.463-0.705-1.001-0.699c-1.983,0.022-3.966,0.033-5.948-0.005c-0.613-0.012-0.873,0.228-1.043,0.779
		c-0.292,0.945-0.709,1.854-0.969,2.806c-0.218,0.8-0.607,1.097-1.46,1.071c-1.875-0.059-1.864-0.007-1.209-1.737
		c1.939-5.124,3.878-10.248,5.782-15.385c0.233-0.628,0.519-0.852,1.198-0.846c2.212,0.021,2.224-0.014,3.022,2.095
		c1.81,4.784,3.607,9.573,5.41,14.36C677.696,159.85,677.696,159.85,675.964,159.85z M669.241,145.248
		c-0.855,2.376-1.704,4.754-2.569,7.126c-0.194,0.531,0.128,0.55,0.487,0.551c1.452,0.003,2.903-0.003,4.355,0.004
		c0.456,0.002,0.721-0.141,0.542-0.642c-0.842-2.35-1.692-4.697-2.539-7.045C669.425,145.244,669.333,145.246,669.241,145.248z"/>
</g>
<g>
	<path style="fill:#FE0000;" d="M584.282,138.297c-6.123,8.872-6.135,17.582-0.071,26.355c-1.097,0.174-2.148,0.064-3.193,0.08
		c-0.398,0.006-0.556-0.305-0.74-0.579c-4.761-7.101-4.77-18.004-0.031-25.222c0.277-0.422,0.572-0.668,1.115-0.645
		C582.279,138.326,583.2,138.297,584.282,138.297z"/>
	<path style="fill:#FE0000;" d="M616.753,138.307c1.289,0,2.366-0.009,3.443,0.004c0.446,0.006,0.575,0.416,0.754,0.711
		c2.945,4.876,4.033,10.146,3.294,15.789c-0.422,3.222-1.522,6.208-3.152,9.015c-0.393,0.678-0.846,1.005-1.656,0.932
		c-0.806-0.073-1.625-0.016-2.674-0.016c3.109-4.036,4.7-8.369,4.698-13.219C621.457,146.668,619.863,142.331,616.753,138.307z"/>
	<path style="fill:#FE0000;" d="M600.524,168.531c-9.385-0.069-16.982-7.729-16.925-17.064c0.059-9.589,7.748-17.018,17.537-16.942
		c9.055,0.07,16.633,7.949,16.502,17.158C617.505,161.13,609.917,168.6,600.524,168.531z M615.67,151.56
		c0.016-8.128-6.697-14.973-14.731-15.022c-8.497-0.052-15.351,6.645-15.358,15.007c-0.007,8.14,6.815,14.971,14.993,15.011
		C608.789,166.597,615.654,159.777,615.67,151.56z"/>
	<path style="fill:#FE0000;" d="M599.066,142.933c1.412,0.088,3.104-0.163,4.778,0.205c2.402,0.527,3.724,2.006,3.935,4.451
		c0.328,3.822-1.356,5.884-5.2,6.22c-1.512,0.132-3.042,0.099-4.562,0.07c-0.764-0.015-1.064,0.204-1.038,1.009
		c0.053,1.652-0.013,3.308,0.028,4.961c0.018,0.709-0.164,1.007-0.937,0.983c-2.139-0.066-1.785,0.198-1.792-1.795
		c-0.018-4.995,0.02-9.991-0.029-14.986c-0.009-0.942,0.288-1.19,1.173-1.135C596.543,142.986,597.671,142.933,599.066,142.933z
		 M596.995,150.787c-0.001,0.364,0.072,0.685,0.518,0.678c1.844-0.03,3.703,0.219,5.526-0.181c1.339-0.294,1.984-1.222,2.02-2.678
		c0.043-1.75-0.5-2.613-1.904-3.06c-1.03-0.328-2.092-0.265-3.142-0.237c-0.974,0.026-2.222-0.44-2.848,0.225
		c-0.575,0.611-0.102,1.831-0.17,2.59C596.996,149.138,596.998,149.963,596.995,150.787z"/>
</g>
<g>
	<g>
		<defs>
			<rect id="SVGID_1_" x="463.482" y="417.732" width="34.278" height="31.268"/>
		</defs>
		<clipPath id="SVGID_2_">
			<use xlink:href="#SVGID_1_"  style="overflow:visible;"/>
		</clipPath>
	</g>
</g>
</svg>
