<svg id="图层_1" data-name="图层 1" xmlns="http://www.w3.org/2000/svg" xmlns:xlink="http://www.w3.org/1999/xlink" viewBox="0 0 433 268.65"><defs><style>.cls-1,.cls-10,.cls-12,.cls-15,.cls-2,.cls-4,.cls-5,.cls-7,.cls-8{fill:none;}.cls-15,.cls-2,.cls-4,.cls-7{stroke:lime;}.cls-10,.cls-12,.cls-15,.cls-2,.cls-4,.cls-5,.cls-7,.cls-8{stroke-miterlimit:10;}.cls-16,.cls-3{fill:lime;}.cls-10,.cls-4,.cls-5,.cls-8{stroke-width:2px;}.cls-5{stroke:#3fa9f5;}.cls-6{fill:#3fa9f5;}.cls-7{stroke-width:1.5px;}.cls-8{stroke:#f7931e;}.cls-9{fill:#f7931e;}.cls-10,.cls-12{stroke:red;}.cls-11{clip-path:url(#clip-path);}.cls-12,.cls-15{stroke-width:3px;}.cls-13,.cls-16{font-size:24.93px;font-family:PingFang-SC-Bold, PingFang SC;font-weight:700;}.cls-13{fill:red;}.cls-14{clip-path:url(#clip-path-2);}.cls-17{fill:#f77900;}</style><clipPath id="clip-path" transform="translate(-398 -127.35)"><polyline class="cls-1" points="602.62 139.63 604.75 137.99 651.5 137.99 660 142.37 662.83 154.41 661.41 158.79 654.33 164.26 592 164.26"/></clipPath><clipPath id="clip-path-2" transform="translate(-398 -127.35)"><polyline class="cls-1" points="670.87 139.63 672.99 137.99 719.74 137.99 728.24 142.37 731.07 154.41 729.65 158.79 722.57 164.26 660.24 164.26"/></clipPath></defs><title>abababababaa</title><path class="cls-2" d="M442.5,276.5" transform="translate(-398 -127.35)"/><path class="cls-3" d="M428,277" transform="translate(-398 -127.35)"/><path class="cls-4" d="M459.26,299.5c0,6.94-7.59,12.29-11,11.4-5.65-1.46-5.65-21.34,0-22.8C451.67,287.21,459.26,292.56,459.26,299.5Z" transform="translate(-398 -127.35)"/><path class="cls-3" d="M442,292.11l-11,1.26a.87.87,0,0,1-1-.88h0a1.17,1.17,0,0,1,1-1.12l11-1.26a.88.88,0,0,1,1,.89h0A1.15,1.15,0,0,1,442,292.11Z" transform="translate(-398 -127.35)"/><path class="cls-3" d="M441,298.23l-10,1.14a.87.87,0,0,1-1-.88h0a1.17,1.17,0,0,1,1-1.12l10-1.14a.88.88,0,0,1,1,.88h0A1.15,1.15,0,0,1,441,298.23Z" transform="translate(-398 -127.35)"/><path class="cls-3" d="M442,309.11l-11,1.26a.87.87,0,0,1-1-.88h0a1.17,1.17,0,0,1,1-1.12l11-1.26a.88.88,0,0,1,1,.89h0A1.15,1.15,0,0,1,442,309.11Z" transform="translate(-398 -127.35)"/><path class="cls-3" d="M441,303.23l-10,1.14a.87.87,0,0,1-1-.88h0a1.17,1.17,0,0,1,1-1.12l10-1.14a.88.88,0,0,1,1,.88h0A1.15,1.15,0,0,1,441,303.23Z" transform="translate(-398 -127.35)"/><path class="cls-5" d="M471.26,341.5c0,6.94-7.59,12.29-11,11.4-5.65-1.46-5.65-21.34,0-22.8C463.67,329.21,471.26,334.56,471.26,341.5Z" transform="translate(-398 -127.35)"/><rect class="cls-6" x="44" y="204.65" width="13" height="2" rx="1"/><rect class="cls-6" x="44" y="210.65" width="12" height="2" rx="1"/><rect class="cls-6" x="44" y="221.65" width="13" height="2" rx="1"/><rect class="cls-6" x="44" y="215.65" width="12" height="2" rx="1"/><path class="cls-7" d="M421.16,262c0-5.4,4.23-9.56,6.14-8.88,3.15,1.14,3.15,16.62,0,17.75C425.39,271.51,421.16,267.35,421.16,262Z" transform="translate(-398 -127.35)"/><path class="cls-7" d="M418.25,262c0,5.4-4.24,9.56-6.15,8.87-3.15-1.13-3.15-16.61,0-17.75C414,252.39,418.25,256.55,418.25,262Z" transform="translate(-398 -127.35)"/><rect class="cls-3" y="134.04" width="10.06" height="1.68" rx="0.5"/><rect class="cls-3" x="398" y="268.1" width="10.06" height="1.68" rx="0.5" transform="translate(-455.06 -10.32) rotate(-15.44)"/><rect class="cls-3" x="398" y="254.68" width="10.06" height="1.68" rx="0.5" transform="translate(-315.36 -225.49) rotate(15.45)"/><rect class="cls-3" x="431.55" y="261.39" width="10.06" height="1.68" rx="0.5" transform="translate(475.16 397.1) rotate(-180)"/><rect class="cls-3" x="431.55" y="268.1" width="10.06" height="1.68" rx="0.5" transform="translate(387.79 517.06) rotate(-164.56)"/><rect class="cls-3" x="431.55" y="254.68" width="10.06" height="1.68" rx="0.5" transform="translate(527.46 258.14) rotate(164.55)"/><path class="cls-8" d="M447,383.5c0,6.94,7.59,12.29,11,11.4,5.66-1.46,5.66-21.34,0-22.8C454.59,371.21,447,376.56,447,383.5Z" transform="translate(-398 -127.35)"/><rect class="cls-9" x="463.26" y="374" width="13.74" height="2" rx="1" transform="translate(542.26 622.65) rotate(-180)"/><rect class="cls-9" x="464.32" y="380" width="12.68" height="2" rx="1" transform="translate(543.32 634.65) rotate(180)"/><rect class="cls-9" x="463.26" y="391" width="13.74" height="2" rx="1" transform="translate(542.26 656.65) rotate(-180)"/><rect class="cls-9" x="464.32" y="385" width="12.68" height="2" rx="1" transform="translate(543.32 644.65) rotate(-180)"/><path class="cls-9" d="M466.74,371a11.56,11.56,0,0,0-.77,6c.45,2.8,1.89,3.45,2.31,7a18.87,18.87,0,0,1,0,4,21,21,0,0,1-.77,3.83A27.63,27.63,0,0,1,466,396h1.54a25.6,25.6,0,0,0,1.54-4.17,20.17,20.17,0,0,0,.77-3.83,18.14,18.14,0,0,0,0-4c-.42-3.55-1.86-4.2-2.31-7a11.67,11.67,0,0,1,.77-6Z" transform="translate(-398 -127.35)"/><path class="cls-9" d="M470.8,371a11.67,11.67,0,0,0-.77,6c.45,2.8,1.89,3.45,2.32,7a18.87,18.87,0,0,1,0,4,20.08,20.08,0,0,1-.78,3.83A25.6,25.6,0,0,1,470,396h1.54a26.76,26.76,0,0,0,1.55-4.17,21,21,0,0,0,.77-3.83,18.81,18.81,0,0,0,0-4c-.42-3.55-1.87-4.2-2.32-7a11.7,11.7,0,0,1,.78-6Z" transform="translate(-398 -127.35)"/><circle class="cls-10" cx="231.19" cy="23.78" r="15.94"/><g class="cls-11"><circle class="cls-12" cx="231.13" cy="23.78" r="22.28"/></g><text class="cls-13" transform="translate(223.17 33.03) scale(0.98 1)">P</text><circle class="cls-4" cx="299.43" cy="23.78" r="15.94"/><g class="cls-14"><circle class="cls-15" cx="299.37" cy="23.78" r="22.28"/></g><text class="cls-16" transform="translate(291.41 32.03) scale(0.98 1)">A</text><path class="cls-17" d="M815.74,169.69q-2.15-5.91-4.3-11.83l-.84-2.29s0-.1,0-.14a7.41,7.41,0,0,0,2.48-1.28c.05,0,.05.07.06.11q2.79,7.65,5.57,15.3a.65.65,0,0,1,0,.13Z" transform="translate(-398 -127.35)"/><path class="cls-17" d="M831,144.86a3.68,3.68,0,0,0-.63.39l-3.5,2.31-.06,0a6.32,6.32,0,0,0-1.39-2.37,1.08,1.08,0,0,1,.24-.18l5.25-3.35.09-.05Z" transform="translate(-398 -127.35)"/><path class="cls-17" d="M815,143.07a9.1,9.1,0,1,1-9.07-9.11A9.1,9.1,0,0,1,815,143.07Z" transform="translate(-398 -127.35)"/><path class="cls-17" d="M808.38,155.73c.19,0,.27,0,.34.22.58,1.63,1.19,3.26,1.78,4.89l.89,2.43c-.06.06-.1,0-.14,0-1.13-.58-2.28-1.14-3.41-1.73a20.6,20.6,0,0,0-2.28-1.07,2.14,2.14,0,0,0-1.25-.13.65.65,0,0,0-.39.27c-.48.63-1,1.24-1.47,1.87-.63.81-1.25,1.62-1.88,2.42-.78,1-1.57,2-2.35,3a2.36,2.36,0,0,1-1.66,1,2.28,2.28,0,0,1-1.71-.54,2.92,2.92,0,0,1-1.13-1.82,2.5,2.5,0,0,1,.28-1.61,10.77,10.77,0,0,1,1-1.34l3.85-4.92,2.17-2.78a3.55,3.55,0,0,1,1-1,3.07,3.07,0,0,1,1-.32,3.8,3.8,0,0,1,1.84.42,12.82,12.82,0,0,0,1.94.6,5.35,5.35,0,0,0,1,.11A2.09,2.09,0,0,0,808.38,155.73Z" transform="translate(-398 -127.35)"/><path class="cls-17" d="M818.24,163c-.4-1.09-.78-2.14-1.16-3.2q-1.22-3.41-2.45-6.81a.33.33,0,0,1,0-.29c.78-1.58,1.52-3.17,2.33-4.73a3.67,3.67,0,0,1,3-2,3.87,3.87,0,0,1,3.9,5.61l-4.35,8.92c-.38.79-.77,1.59-1.16,2.38Z" transform="translate(-398 -127.35)"/><path class="cls-17" d="M822.09,144.1a3.87,3.87,0,1,1,3.87-3.85A3.87,3.87,0,0,1,822.09,144.1Z" transform="translate(-398 -127.35)"/><path class="cls-17" d="M808.38,155.73a.94.94,0,0,1-.5,0Z" transform="translate(-398 -127.35)"/></svg>